<?xml version="1.0" encoding="UTF-8" standalone="no"?>
<!-- Created with Inkscape (http://www.inkscape.org/) -->

<svg
   width="74.195137mm"
   height="5.6330185mm"
   viewBox="0 0 74.195137 5.6330185"
   version="1.1"
   id="svg5"
   xml:space="preserve"
   xmlns="http://www.w3.org/2000/svg"
   xmlns:svg="http://www.w3.org/2000/svg"><defs
     id="defs2"><rect
       x="227.48219"
       y="461.49536"
       width="229.94984"
       height="30.770809"
       id="rect256" /></defs><g
     id="layer1"
     transform="translate(-51.160691,-125.31333)"><path
       style="fill:#000000;stroke-width:0.00875976"
       d="m 51.275976,129.78676 c -0.0412,-0.0131 -0.09054,-0.0646 -0.103551,-0.10805 -0.01564,-0.0522 -0.01564,-3.49309 0,-3.54528 0.01375,-0.0459 0.06287,-0.095 0.108744,-0.10875 0.02619,-0.008 0.151752,-0.0108 0.46625,-0.0108 h 0.430405 v -0.28059 c 0,-0.23345 0.0023,-0.28605 0.01356,-0.31305 0.01809,-0.0432 0.04477,-0.071 0.08718,-0.0906 0.03285,-0.0152 0.06881,-0.0161 0.576239,-0.0163 0.468965,-1.7e-4 0.545531,0.002 0.573648,0.0133 0.04129,0.0172 0.06941,0.0435 0.09048,0.0846 0.01559,0.0304 0.01667,0.0559 0.01667,0.392 0,0.27033 0.0026,0.3595 0.01033,0.3595 0.0057,0 0.170844,-0.0749 0.367022,-0.16643 0.314675,-0.14683 0.361884,-0.16644 0.400808,-0.16644 0.05565,0 0.086,0.0114 0.121612,0.0458 0.02151,0.0207 0.167554,0.32565 0.617566,1.28935 0.581908,1.24614 0.589393,1.26286 0.589235,1.3164 -1.35e-4,0.0457 -0.0043,0.0601 -0.02628,0.092 -0.02273,0.0328 -0.04371,0.0465 -0.161897,0.10507 l -0.135777,0.0673 0.08658,4.8e-4 c 0.04762,2.2e-4 0.102712,0.005 0.122427,0.0113 0.04588,0.0138 0.095,0.0629 0.108744,0.10874 0.01522,0.0507 0.01522,0.76143 0,0.81222 -0.01375,0.0459 -0.06287,0.095 -0.108744,0.10874 -0.04896,0.0147 -4.205189,0.014 -4.251251,-6e-4 z m 4.020344,-0.51416 v -0.1752 h -1.892121 -1.89212 v 0.1752 0.17519 h 1.89212 1.892121 z m -3.118496,-1.71693 v -1.19134 h -0.332873 -0.332872 v 1.19134 1.19134 h 0.332872 0.332873 z m 1.007379,-0.35039 v -1.54173 H 52.85671 52.528217 v 1.54173 1.54173 h 0.328493 0.328493 z m 1.052437,1.5264 c -0.0045,-0.008 -0.158528,-0.33818 -0.342363,-0.73279 -0.183835,-0.39459 -0.339811,-0.72768 -0.346613,-0.7402 -0.01074,-0.0197 -0.01242,0.0772 -0.01272,0.73278 l -3.55e-4,0.75554 h 0.355081 c 0.335425,0 0.354631,-9.1e-4 0.346963,-0.0153 z m 0.679271,-0.1875 c 0.167722,-0.0778 0.308395,-0.14453 0.312606,-0.14825 0.0042,-0.004 -0.218009,-0.49092 -0.493822,-1.08268 -0.275815,-0.59175 -0.502125,-1.07673 -0.502913,-1.07772 -0.0036,-0.004 -0.629133,0.29197 -0.630089,0.29853 -0.0016,0.0111 0.9963,2.1511 1.003244,2.15138 0.0034,1.4e-4 0.143252,-0.0635 0.310974,-0.14126 z"
       id="path200" /><text
       xml:space="preserve"
       transform="matrix(0.40136022,0,0,0.40136022,-34.680659,-60.315605)"
       id="text254"
       style="font-size:13.3333px;white-space:pre;shape-inside:url(#rect256);fill:#000000"><tspan
         x="227.48242"
         y="473.62773"
         id="tspan363"><tspan
           style="font-weight:600;font-family:'Source Sans 3 VF';-inkscape-font-specification:'Source Sans 3 VF Semi-Bold'"
           id="tspan361">Estantería Digital de Papalotla</tspan></tspan></text></g></svg>
